<?xml version="1.0" encoding="UTF-8" standalone="no"?>
<svg
   xmlns:dc="http://purl.org/dc/elements/1.1/"
   xmlns:cc="http://creativecommons.org/ns#"
   xmlns:rdf="http://www.w3.org/1999/02/22-rdf-syntax-ns#"
   xmlns:svg="http://www.w3.org/2000/svg"
   xmlns="http://www.w3.org/2000/svg"
   xmlns:sodipodi="http://sodipodi.sourceforge.net/DTD/sodipodi-0.dtd"
   xmlns:inkscape="http://www.inkscape.org/namespaces/inkscape"
   width="64"
   height="64"
   viewBox="0 0 16.933333 16.933334"
   version="1.1"
   id="svg8"
   inkscape:version="0.92.3 (2405546, 2018-03-11)"
   sodipodi:docname="14-Conference.svg"
   inkscape:export-filename="/home/wanzabuyumna/@WANZ_DESIGN/NICON STUDIO MAGANG/Style Line/Style Line/Icon 8/Icon 8.png"
   inkscape:export-xdpi="96"
   inkscape:export-ydpi="96">
  <defs
     id="defs2" />
  <sodipodi:namedview
     id="base"
     pagecolor="#ffffff"
     bordercolor="#959595"
     borderopacity="1"
     inkscape:pageopacity="0"
     inkscape:pageshadow="2"
     inkscape:zoom="6.4111021"
     inkscape:cx="26.943871"
     inkscape:cy="23.670863"
     inkscape:document-units="px"
     inkscape:current-layer="layer1"
     inkscape:document-rotation="0"
     showgrid="false"
     units="px"
     inkscape:window-width="1920"
     inkscape:window-height="1040"
     inkscape:window-x="0"
     inkscape:window-y="0"
     inkscape:window-maximized="1"
     inkscape:pagecheckerboard="0"
     inkscape:snap-bbox="true"
     inkscape:bbox-nodes="true">
    <inkscape:grid
       type="xygrid"
       id="grid822" />
  </sodipodi:namedview>
  <metadata
     id="metadata5">
    <rdf:RDF>
      <cc:Work
         rdf:about="">
        <dc:format>image/svg+xml</dc:format>
        <dc:type
           rdf:resource="http://purl.org/dc/dcmitype/StillImage" />
      </cc:Work>
    </rdf:RDF>
  </metadata>
  <g
     inkscape:label="14-Conference"
     inkscape:groupmode="layer"
     id="layer1">
    <path
       style="color:#000000;font-style:normal;font-variant:normal;font-weight:normal;font-stretch:normal;font-size:medium;line-height:normal;font-family:sans-serif;font-variant-ligatures:normal;font-variant-position:normal;font-variant-caps:normal;font-variant-numeric:normal;font-variant-alternates:normal;font-feature-settings:normal;text-indent:0;text-align:start;text-decoration:none;text-decoration-line:none;text-decoration-style:solid;text-decoration-color:#000000;letter-spacing:normal;word-spacing:normal;text-transform:none;writing-mode:lr-tb;direction:ltr;text-orientation:mixed;dominant-baseline:auto;baseline-shift:baseline;text-anchor:start;white-space:normal;shape-padding:0;clip-rule:nonzero;display:inline;overflow:visible;visibility:visible;opacity:1;isolation:auto;mix-blend-mode:normal;color-interpolation:sRGB;color-interpolation-filters:linearRGB;solid-color:#000000;solid-opacity:1;vector-effect:none;fill:#000000;fill-opacity:1;fill-rule:nonzero;stroke:none;stroke-width:2.00000119;stroke-linecap:round;stroke-linejoin:round;stroke-miterlimit:4;stroke-dasharray:none;stroke-dashoffset:0;stroke-opacity:1;paint-order:stroke fill markers;color-rendering:auto;image-rendering:auto;shape-rendering:auto;text-rendering:auto;enable-background:accumulate"
       d="M 47 2 C 43.670542 2 40.998047 4.6903919 40.998047 7.9921875 C 40.998047 9.4471544 41.514025 10.778599 42.380859 11.820312 C 39.690512 13.246748 37.729846 15.874885 37.166016 19.001953 L 33.003906 19.001953 C 32.451642 18.999853 32.002192 19.445782 32 19.998047 L 32 25.001953 C 32.000151 25.302804 32.135566 25.587574 32.369141 25.777344 L 37 29.519531 L 37 41 L 33.652344 41 C 32.831998 38.675704 30.622803 37.001701 28 37 C 24.672617 37.0021 22.001953 39.691636 22.001953 42.992188 C 22.001953 45.211904 22.62168 46.949235 23.722656 48.166016 C 23.810716 48.263526 23.906268 48.371359 24 48.460938 L 24 49.259766 C 20.96727 50.413504 20 52.873863 20 54.994141 L 20 59.003906 C 20 60.648605 21.353347 62 22.998047 62 L 33.001953 62 C 34.646652 62 36 60.648605 36 59.003906 L 36 54.994141 C 36 52.873863 35.032769 50.413504 32 49.259766 L 32 48.460938 C 32.09373 48.371364 32.189281 48.263149 32.277344 48.166016 C 33.376998 46.950709 33.996573 45.215861 33.998047 43 L 40.001953 43 C 40.003453 45.215861 40.623003 46.950709 41.722656 48.166016 C 41.810716 48.263526 41.906268 48.371359 42 48.460938 L 42 49.259766 C 38.967228 50.413504 38 52.873863 38 54.994141 L 38 59.003906 C 38 60.648605 39.353344 62 40.998047 62 L 51.001953 62 C 52.646652 62 54 60.648605 54 59.003906 L 54 54.994141 C 54 52.873863 53.032731 50.413504 50 49.259766 L 50 48.460938 C 50.09373 48.371364 50.189281 48.263149 50.277344 48.166016 C 51.376997 46.950709 51.996535 45.215861 51.998047 43 L 61 43 C 62.334816 43.0012 62.334816 41.001172 61 41 L 57 41 L 57 29.519531 L 61.630859 25.777344 C 61.864434 25.587611 61.999622 25.302766 62 25.001953 L 62 19.998047 C 61.9978 19.445782 61.549352 18.999837 60.988281 19.001953 C 60.947841 17.917758 60.749386 16.824272 60.414062 15.820312 C 60.03131 14.673943 59.469172 13.61425 58.767578 12.667969 C 58.066022 11.721651 57.222828 10.889828 56.265625 10.208984 C 56.075893 10.069898 55.842168 10.002082 55.607422 10.017578 C 54.658269 10.077678 54.320725 11.302546 55.105469 11.839844 C 55.890061 12.397891 56.581069 13.077038 57.158203 13.855469 C 57.735337 14.633901 58.200261 15.510536 58.515625 16.455078 C 58.783594 17.258114 58.946959 18.112517 58.990234 19.001953 L 56.833984 19.001953 C 56.270154 15.874886 54.309446 13.246748 51.619141 11.820312 C 52.485975 10.7786 53.001953 9.4471544 53.001953 7.9921875 C 53.001953 4.6903919 50.329427 2 47 2 z M 47 4 C 49.193301 4 51.001953 5.7712615 51.001953 7.9921875 C 51.001953 10.213151 49.193301 11.994141 47 11.994141 C 44.806668 11.994141 42.998047 10.213151 42.998047 7.9921875 C 42.998047 5.7712615 44.806668 4 47 4 z M 28.974609 6.9902344 C 28.718735 6.9977944 28.475168 7.1037389 28.294922 7.2851562 L 24.595703 10.992188 L 12.003906 10.992188 C 9.8052047 10.992188 8 12.766119 8 14.992188 L 8 15.998047 L 6 15.998047 C 3.8013355 15.998841 2 17.781757 2 20 L 2 35 C 1.99766 35.56417 2.4614093 36.018571 3.0253906 36.003906 C 3.2812646 35.996306 3.5248328 35.890402 3.7050781 35.708984 L 7.4023438 32.003906 L 19.996094 32.003906 C 22.194835 32.003906 24 30.227982 24 28.001953 L 24 26.996094 L 25.998047 26.996094 C 28.196749 26.995338 30 25.212384 30 22.994141 L 30 7.9941406 C 30.0023 7.4300083 29.53859 6.9756076 28.974609 6.9902344 z M 28 10.408203 L 28 22.994141 C 28 24.091791 27.123325 24.993725 25.998047 24.994141 L 12.003906 25 C 10.894237 25.00034 10 24.119456 10 22.994141 L 10 14.992188 C 10 13.894232 10.878628 12.992187 12.003906 12.992188 L 25.017578 12.992188 C 25.283657 12.991958 25.539022 12.887817 25.726562 12.699219 L 28 10.408203 z M 44.076172 13.234375 C 44.934805 13.709575 45.948842 13.994141 47 13.994141 C 48.051166 13.994141 49.065195 13.709538 49.923828 13.234375 C 52.356975 14.202955 54.188231 16.34487 54.789062 19.001953 L 39.210938 19.001953 C 39.811773 16.34487 41.643063 14.202955 44.076172 13.234375 z M 15 18 C 14.447715 18 14 18.447715 14 19 C 14 19.552285 14.447715 20 15 20 C 15.552285 20 16 19.552285 16 19 C 16 18.447715 15.552285 18 15 18 z M 19 18 C 18.447715 18 18 18.447715 18 19 C 18 19.552285 18.447715 20 19 20 C 19.552285 20 20 19.552285 20 19 C 20 18.447715 19.552285 18 19 18 z M 23 18 C 22.447715 18 22 18.447715 22 19 C 22 19.552285 22.447715 20 23 20 C 23.552285 20 24 19.552285 24 19 C 24 18.447715 23.552285 18 23 18 z M 10 37 C 6.672655 37.0021 4.0019531 39.691638 4.0019531 42.992188 C 4.0019531 45.211904 4.6216799 46.949235 5.7226562 48.166016 C 5.8107194 48.263527 5.9062677 48.371361 6 48.460938 L 6 49.259766 C 2.9672314 50.413504 2 52.873863 2 54.994141 L 2 59.003906 C 2 60.648605 3.3533477 62 4.9980469 62 L 15.001953 62 C 16.646653 62 18 60.648605 18 59.003906 L 18 54.994141 C 18 52.873863 17.03273 50.413504 14 49.259766 L 14 48.460938 C 14.09373 48.371366 14.189281 48.263149 14.277344 48.166016 C 15.37832 46.949235 15.998047 45.211904 15.998047 42.992188 C 15.998047 39.691638 13.327383 37.002117 10 37 z M 10 39 C 12.187968 39.0021 13.998047 40.772544 13.998047 42.992188 C 13.998047 44.805643 13.503583 46.040987 12.794922 46.824219 C 12.087129 47.606468 11.137524 47.999055 10 48 C 8.8625134 47.999055 7.912908 47.606468 7.2050781 46.824219 C 6.4964167 46.040987 6.0019531 44.805643 6.0019531 42.992188 C 6.0019531 40.772544 7.8120693 39.002117 10 39 z M 28 39 C 30.187968 39.0021 31.998047 40.772543 31.998047 42.992188 C 31.998047 44.805643 31.503583 46.040987 30.794922 46.824219 C 30.08713 47.606468 29.137524 47.999055 28 48 C 26.862513 47.999055 25.912908 47.606468 25.205078 46.824219 C 24.496417 46.040987 24.001953 44.805643 24.001953 42.992188 C 24.001953 40.772543 25.812069 39.002117 28 39 z M 46 39 C 48.187968 39.0021 49.998047 40.772542 49.998047 42.992188 C 49.998047 44.805643 49.50358 46.040987 48.794922 46.824219 C 48.08713 47.606468 47.137524 47.999055 46 48 C 44.86251 47.999055 43.912912 47.606468 43.205078 46.824219 C 42.49642 46.040987 42.001953 44.805643 42.001953 42.992188 C 42.001953 40.772542 43.812066 39.002117 46 39 z M 8 49.673828 C 8.6359055 49.895686 9.3108032 49.999622 10 50 C 10.689235 49.999622 11.364094 49.895686 12 49.673828 L 12 49.990234 C 12.000076 50.444496 12.304619 50.841416 12.744141 50.957031 C 15.33221 51.650499 16 53.503268 16 54.994141 L 16 59.003906 C 16 59.543963 15.5456 60 15.001953 60 L 14 60 L 14 58 C 14.0012 56.665146 12.001172 56.665146 12 58 L 12 60 L 8 60 L 8 58 C 7.99883 56.665146 5.9987906 56.665146 6 58 L 6 60 L 4.9980469 60 C 4.4543618 60 4 59.543963 4 59.003906 L 4 54.994141 C 4 53.503268 4.6677898 51.650499 7.2558594 50.957031 C 7.6951917 50.841378 7.9999244 50.444496 8 49.990234 L 8 49.673828 z M 26 49.673828 C 26.635906 49.895686 27.310803 49.999622 28 50 C 28.689235 49.999622 29.364094 49.895686 30 49.673828 L 30 49.990234 C 30.000075 50.444496 30.304997 50.841416 30.744141 50.957031 C 33.33221 51.650499 34 53.503268 34 54.994141 L 34 59.003906 C 34 59.543963 33.5456 60 33.001953 60 L 32 60 L 32 58 C 32.0012 56.665146 30.001171 56.665146 30 58 L 30 60 L 26 60 L 26 58 C 25.9988 56.665146 23.998791 56.665146 24 58 L 24 60 L 22.998047 60 C 22.454362 60 22 59.543963 22 59.003906 L 22 54.994141 C 22 53.503268 22.66779 51.650499 25.255859 50.957031 C 25.695191 50.841378 25.999925 50.444496 26 49.990234 L 26 49.673828 z M 44 49.673828 C 44.635909 49.895686 45.310803 49.999622 46 50 C 46.689235 49.999622 47.364094 49.895686 48 49.673828 L 48 49.990234 C 48.000076 50.444496 48.304619 50.841416 48.744141 50.957031 C 51.33221 51.650499 52 53.503268 52 54.994141 L 52 59.003906 C 52 59.543963 51.5456 60 51.001953 60 L 50 60 L 50 58 C 50.0012 56.665146 48.001168 56.665146 48 58 L 48 60 L 44 60 L 44 58 C 43.9988 56.665146 41.998787 56.665146 42 58 L 42 60 L 40.998047 60 C 40.454362 60 40 59.543963 40 59.003906 L 40 54.994141 C 40 53.503268 40.66779 51.650499 43.255859 50.957031 C 43.695188 50.841378 43.999928 50.444496 44 49.990234 L 44 49.673828 z "
       transform="scale(0.26458334)"
       id="path846" />
  </g>
</svg>
