<?xml version="1.0" encoding="UTF-8" standalone="no"?>
<svg
   xmlns:dc="http://purl.org/dc/elements/1.1/"
   xmlns:cc="http://creativecommons.org/ns#"
   xmlns:rdf="http://www.w3.org/1999/02/22-rdf-syntax-ns#"
   xmlns:svg="http://www.w3.org/2000/svg"
   xmlns="http://www.w3.org/2000/svg"
   xmlns:sodipodi="http://sodipodi.sourceforge.net/DTD/sodipodi-0.dtd"
   xmlns:inkscape="http://www.inkscape.org/namespaces/inkscape"
   width="64"
   height="64"
   viewBox="0 0 16.933333 16.933334"
   version="1.1"
   id="svg8"
   inkscape:version="0.92.3 (2405546, 2018-03-11)"
   sodipodi:docname="05-Productivity.svg"
   inkscape:export-filename="/home/wanzabuyumna/@WANZ_DESIGN/NICON STUDIO MAGANG/Style Line/Style Line/Icon 5/Icon 5.png"
   inkscape:export-xdpi="96"
   inkscape:export-ydpi="96">
  <defs
     id="defs2" />
  <sodipodi:namedview
     id="base"
     pagecolor="#ffffff"
     bordercolor="#959595"
     borderopacity="1"
     inkscape:pageopacity="0"
     inkscape:pageshadow="2"
     inkscape:zoom="8"
     inkscape:cx="36.160809"
     inkscape:cy="27.733144"
     inkscape:document-units="px"
     inkscape:current-layer="layer1"
     inkscape:document-rotation="0"
     showgrid="false"
     units="px"
     inkscape:window-width="1920"
     inkscape:window-height="1040"
     inkscape:window-x="0"
     inkscape:window-y="0"
     inkscape:window-maximized="1"
     inkscape:pagecheckerboard="0"
     inkscape:snap-bbox="true"
     inkscape:bbox-nodes="true">
    <inkscape:grid
       type="xygrid"
       id="grid822" />
  </sodipodi:namedview>
  <metadata
     id="metadata5">
    <rdf:RDF>
      <cc:Work
         rdf:about="">
        <dc:format>image/svg+xml</dc:format>
        <dc:type
           rdf:resource="http://purl.org/dc/dcmitype/StillImage" />
      </cc:Work>
    </rdf:RDF>
  </metadata>
  <g
     inkscape:label="05-Productivity"
     inkscape:groupmode="layer"
     id="layer1">
    <path
       style="color:#000000;font-style:normal;font-variant:normal;font-weight:normal;font-stretch:normal;font-size:medium;line-height:normal;font-family:sans-serif;font-variant-ligatures:normal;font-variant-position:normal;font-variant-caps:normal;font-variant-numeric:normal;font-variant-alternates:normal;font-feature-settings:normal;text-indent:0;text-align:start;text-decoration:none;text-decoration-line:none;text-decoration-style:solid;text-decoration-color:#000000;letter-spacing:normal;word-spacing:normal;text-transform:none;writing-mode:lr-tb;direction:ltr;text-orientation:mixed;dominant-baseline:auto;baseline-shift:baseline;text-anchor:start;white-space:normal;shape-padding:0;clip-rule:nonzero;display:inline;overflow:visible;visibility:visible;opacity:1;isolation:auto;mix-blend-mode:normal;color-interpolation:sRGB;color-interpolation-filters:linearRGB;solid-color:#000000;solid-opacity:1;vector-effect:none;fill:#000000;fill-opacity:1;fill-rule:nonzero;stroke:none;stroke-width:2.00000119;stroke-linecap:round;stroke-linejoin:round;stroke-miterlimit:4;stroke-dasharray:none;stroke-dashoffset:0;stroke-opacity:1;color-rendering:auto;image-rendering:auto;shape-rendering:auto;text-rendering:auto;enable-background:accumulate"
       d="M 14.003906,2 C 7.3881916,2 2,7.3883133 2,14.003906 2,19.981399 6.3941602,24.966219 12.15625,25.855469 12.040219,26.435515 11.996725,27.115928 12.003906,28 c -0.01134,1.495753 0.134914,2.498975 0.507813,3.21875 0.39478,0.76203 1.00684,1.107972 1.595703,1.357422 0.495356,0.209764 0.845304,0.333745 1.246094,0.679687 0.400827,0.345827 0.876092,0.947862 1.380859,2.191407 0.504729,1.243543 0.585135,2.00558 0.539063,2.533203 -0.04611,0.527663 -0.220728,0.862289 -0.427735,1.365234 -0.250968,0.610239 -0.420748,1.278929 -0.162109,2.103516 0.258527,0.824541 0.845995,1.615158 1.917968,2.701172 0.06425,0.06501 0.115747,0.116506 0.177735,0.177734 -1.09193,0.415521 -2.050077,0.679689 -2.8125,0.679687 0.0021,-0.552453 -0.443629,-1.00194 -0.996094,-1.003906 H 2.9960938 C 2.4436281,44.005906 1.9978834,44.455359 2,45.007812 V 60 c 0.00197,0.549581 0.4465006,0.994166 0.9960938,0.996094 H 14.970703 C 15.520296,60.994196 15.96487,60.549581 15.966797,60 H 17 c 1.194167,0 5.039912,0.48859 8.681641,0.988281 1.820864,0.249827 3.621845,0.506639 5.101562,0.695313 C 32.26292,61.872192 33.360219,62 34.037109,62 c 1.7088,0 3.494277,-1.004436 5.5,-2.361328 2.005686,-1.356892 4.154049,-3.138873 6.148438,-4.910156 3.978565,-3.533526 7.278868,-6.998234 7.341797,-7.064454 1.301472,-1.300951 1.169535,-3.086688 0.324218,-4.324218 -0.190866,-0.279307 -0.41854,-0.516823 -0.68164,-0.722656 0.319748,-0.506648 0.500635,-0.978847 0.548828,-1.462891 0.0737,-0.740342 -0.184634,-1.317826 -0.355469,-1.742188 -0.171212,-0.424365 -0.298452,-0.751123 -0.310547,-1.269531 -0.01134,-0.518362 0.10129,-1.251695 0.583985,-2.384766 0.526012,-1.234812 1.011549,-1.837413 1.423828,-2.185546 0.41232,-0.348095 0.787397,-0.475296 1.300781,-0.708985 0.513385,-0.233575 1.16291,-0.580721 1.59375,-1.460937 0.360189,-0.735915 0.533874,-1.80564 0.546875,-3.402344 -0.01134,-1.250461 -0.109506,-2.139458 -0.335937,-2.845703 l 0.408203,-0.410156 1.482422,1.484375 c 0.605605,0.606276 1.643392,0.219976 1.705078,-0.634766 l 0.734375,-9.511719 C 62.046361,15.467025 61.536891,14.949846 60.921875,15 l -7.742187,0.615234 c 0.04535,-0.25096 0.06829,-0.519513 0.03125,-0.830078 C 53.089613,13.794085 52.4545,12.879709 51.121094,11.574219 50.030674,10.506612 49.237384,9.9188912 48.412109,9.6621094 47.586831,9.4054795 46.919226,9.577101 46.308594,9.8261719 45.804012,10.032156 45.467599,10.207834 44.935547,10.253906 44.403525,10.300016 43.628445,10.216124 42.378906,9.7148438 41.129406,9.2117873 40.529264,8.7343512 40.179688,8.3339844 39.830072,7.9335801 39.705699,7.5835516 39.486328,7.0859375 39.266738,6.5882856 38.944454,5.9382644 38.083984,5.5078125 37.311021,5.1211279 36.333312,4.9850831 34.804688,4.9980469 33.27606,5.0093855 32.250826,5.1850999 31.535156,5.5585938 30.657115,6.016674 30.372936,6.6588382 30.162109,7.1601562 29.951207,7.6614745 29.832894,8.023425 29.490234,8.4296875 29.147424,8.83595 28.545345,9.3234339 27.304688,9.8476562 26.501444,10.187059 25.919969,10.338053 25.449219,10.396484 23.887258,5.436444 19.265614,2 14.003906,2 Z m -0.02344,4.9824219 C 14.548071,6.9712723 15.011339,7.4343036 15,8.0019531 v 6.0019529 c -0.0019,0.263472 -0.108206,0.515597 -0.294922,0.701172 l -2.998047,3.003906 C 10.761902,18.694498 9.3041594,17.234767 10.291016,16.291016 L 13,13.582031 V 8.0019531 c -0.01085,-0.5523046 0.428214,-1.0081926 0.980469,-1.0195312 z m 20.839843,0.015625 c 1.496124,0 2.09021,0.1558727 2.369141,0.2949219 0.257239,0.1284661 0.345825,0.3280602 0.464844,0.5976562 0.175,0.3973432 0.424014,1.0757945 1.019531,1.7578125 0.59548,0.6820185 1.50749,1.3406325 2.960938,1.9257815 1.453451,0.585147 2.569787,0.746166 3.472656,0.667969 0.902842,-0.07824 1.547511,-0.399817 1.951172,-0.564454 0.368504,-0.12548 0.464073,-0.196114 0.761718,-0.103515 0.297452,0.0926 0.915667,0.457841 1.904297,1.425781 1.208909,1.183601 1.464242,1.737252 1.5,2.029297 0.03024,0.259275 -0.103164,0.514013 -0.24414,0.869141 -0.55231,0.337511 -0.643263,1.102882 -0.185547,1.560546 l 1.484375,1.482422 -5.746094,5.742188 c -1.292375,-4.490547 -5.127056,-7.90573 -9.875,-8.56836 -5.429371,-0.75776 -10.689573,2.269378 -12.763672,7.34375 -2.074097,5.074373 -0.440895,10.927405 3.964844,14.189454 4.14283,3.067399 9.755403,3.12129 13.943359,0.236328 l 0.986328,0.859375 c 0.394824,0.341669 0.989945,0.318167 1.361329,-0.04883 L 55.951172,26.871094 c 0.03024,0.320504 0.0431,0.691754 0.04687,1.136718 -0.01512,1.43623 -0.159373,2.134721 -0.345703,2.515626 -0.122835,0.25096 -0.22941,0.346957 -0.621094,0.52539 -0.391873,0.178394 -1.065325,0.412987 -1.755859,0.996094 -0.690497,0.58307 -1.365839,1.485637 -1.978516,2.923828 -0.562216,1.319777 -0.766352,2.361023 -0.746094,3.224609 0.0189,0.863596 0.279676,1.526273 0.458985,1.970703 0.179149,0.444438 0.238089,0.617948 0.220703,0.791016 -0.07332,0.405623 -0.293637,0.637492 -0.486328,0.929688 -0.656671,-0.04422 -1.329955,0.07936 -1.957032,0.40625 L 40.763672,46 H 37.96875 C 37.991427,45.835591 38,45.67272 38,45.501953 c 0,-1.921701 -1.541155,-3.498047 -3.498047,-3.498047 -4.528993,0.0076 -3.984595,0.0038 -8.533203,0 -1.561319,0 -3.421246,0.7445 -5.158203,1.482422 -0.231693,-0.198047 -0.493522,-0.436902 -0.791016,-0.738281 -0.97185,-0.984567 -1.339494,-1.602691 -1.43164,-1.896485 -0.05669,-0.180283 -0.05541,-0.34467 0.109375,-0.746093 0.165173,-0.401537 0.489667,-1.04779 0.568359,-1.949219 0.07862,-0.90138 -0.0918,-2.012539 -0.679687,-3.460938 -0.587884,-1.448432 -1.241698,-2.360945 -1.927735,-2.953124 -0.686,-0.592219 -1.374022,-0.833071 -1.777344,-1.003907 C 14.588695,30.614312 14.422335,30.55231 14.289062,30.294922 14.129187,29.986512 13.990237,29.361768 14.001953,28 c -0.01134,-1.361768 0.127606,-1.98941 0.287109,-2.296875 0.100161,-0.193512 0.188592,-0.264559 0.591797,-0.435547 0.403322,-0.170835 1.091344,-0.411728 1.777344,-1.003906 0.686037,-0.592217 1.339851,-1.510552 1.927735,-2.958984 0.587917,-1.448437 0.75834,-2.553659 0.679687,-3.455079 -0.07861,-0.901382 -0.403229,-1.555492 -0.568359,-1.957031 -0.122079,-0.297449 -0.190265,-0.486792 -0.109375,-0.74414 0.09222,-0.293673 0.45979,-0.91383 1.43164,-1.898438 0.97189,-0.98457 1.610984,-1.376741 1.882813,-1.453125 0.295944,-0.09751 0.404104,-0.03041 0.759765,0.08789 0.406422,0.157606 1.060799,0.468473 1.964844,0.53125 0.904045,0.06274 2.017733,-0.120565 3.460938,-0.730469 1.443203,-0.609791 2.347917,-1.278632 2.93164,-1.9707032 C 31.603292,9.0227719 31.831657,8.3358 32,7.9355469 32.168192,7.5352938 32.281569,7.4303757 32.458984,7.3378906 32.73074,7.1810402 33.433612,7.0097634 34.820312,6.9980469 Z m 25.09375,10.0917971 -0.480468,6.177734 -0.650391,-0.65039 c -0.390731,-0.391716 -1.025235,-0.391716 -1.416015,0 L 43.398438,36.621094 33.115234,27.697266 c -0.29859,-0.257764 -0.720914,-0.315871 -1.078125,-0.148438 l -6.679687,3.119141 c -0.409294,-1.479615 -0.472164,-3.054117 -0.166016,-4.59961 l 8.566406,-3.892578 9.101563,7.707031 c 0.395913,0.336003 0.98301,0.31275 1.351563,-0.05273 L 54.40625,19.650391 c 0.393003,-0.390956 0.393003,-1.027014 0,-1.417969 L 53.75,17.576172 Z m -9.390624,26.787109 c 0.4815,0.01436 0.9356,0.228622 1.173828,0.591797 0.364346,0.53348 0.44915,1.246211 -0.105469,1.800781 0,0 -3.322972,3.494896 -7.234375,6.96875 -1.955683,1.736886 -4.057837,3.464006 -5.941406,4.738281 C 36.53245,59.251022 34.799456,60 34.037109,60 33.683716,60 32.494514,59.883596 31.033203,59.697266 29.57193,59.510927 27.778362,59.261886 25.955078,59.011719 22.308474,58.511385 18.661139,58 17,58 H 15.966797 V 47.007812 c 1.820902,0 3.627347,-0.830556 5.380859,-1.580078 1.753513,-0.749559 3.454291,-1.423828 4.621094,-1.423828 4.549855,0.0038 4.005875,0.0076 8.533203,0 C 35.350248,44.003906 36,44.688822 36,45.501953 36,46.315122 35.350248,47 34.501953,47 h -6.53125 c -1.333711,0 -1.333711,2.001953 0,2.001953 h 6.53125 c 0.952916,0 1.825746,-0.382486 2.458985,-1.007812 0.02268,0.0014 0.03403,0.0078 0.05859,0.0078 h 3.957031 c 0.145137,0.0013 0.28988,-0.02628 0.421876,-0.08789 l 8.267578,-3.828124 c 0.267968,-0.151941 0.568485,-0.216204 0.857422,-0.208985 z"
       transform="scale(0.26458334)"
       id="path830"
       inkscape:connector-curvature="0"
       sodipodi:nodetypes="ccccccccccccccccccccccccccccccccccccccccccccccccccccccccccccccccccccccccccccccccccccccccccccccccccccccccccccccccccccccccccccccccccccccccccccccccccccccccccccccccccccccccccccc" />
  </g>
</svg>
