<?xml version="1.0" encoding="UTF-8" standalone="no"?>
<svg
   xmlns:dc="http://purl.org/dc/elements/1.1/"
   xmlns:cc="http://creativecommons.org/ns#"
   xmlns:rdf="http://www.w3.org/1999/02/22-rdf-syntax-ns#"
   xmlns:svg="http://www.w3.org/2000/svg"
   xmlns="http://www.w3.org/2000/svg"
   xmlns:sodipodi="http://sodipodi.sourceforge.net/DTD/sodipodi-0.dtd"
   xmlns:inkscape="http://www.inkscape.org/namespaces/inkscape"
   width="64"
   height="64"
   viewBox="0 0 16.933333 16.933334"
   version="1.1"
   id="svg8"
   inkscape:version="0.92.3 (2405546, 2018-03-11)"
   sodipodi:docname="24-Awareness.svg"
   inkscape:export-filename="/home/wanzabuyumna/@WANZ_DESIGN/NICON STUDIO MAGANG/Style Line/Style Line/Icon 8/Icon 8.png"
   inkscape:export-xdpi="96"
   inkscape:export-ydpi="96">
  <defs
     id="defs2" />
  <sodipodi:namedview
     id="base"
     pagecolor="#ffffff"
     bordercolor="#959595"
     borderopacity="1"
     inkscape:pageopacity="0"
     inkscape:pageshadow="2"
     inkscape:zoom="7.9195959"
     inkscape:cx="31.832905"
     inkscape:cy="23.322908"
     inkscape:document-units="px"
     inkscape:current-layer="layer1"
     inkscape:document-rotation="0"
     showgrid="false"
     units="px"
     inkscape:window-width="1920"
     inkscape:window-height="1040"
     inkscape:window-x="0"
     inkscape:window-y="0"
     inkscape:window-maximized="1"
     inkscape:pagecheckerboard="0"
     inkscape:snap-bbox="true"
     inkscape:bbox-paths="true"
     inkscape:bbox-nodes="true">
    <inkscape:grid
       type="xygrid"
       id="grid816" />
  </sodipodi:namedview>
  <metadata
     id="metadata5">
    <rdf:RDF>
      <cc:Work
         rdf:about="">
        <dc:format>image/svg+xml</dc:format>
        <dc:type
           rdf:resource="http://purl.org/dc/dcmitype/StillImage" />
      </cc:Work>
    </rdf:RDF>
  </metadata>
  <g
     inkscape:label="24-Awareness"
     inkscape:groupmode="layer"
     id="layer1">
    <path
       style="color:#000000;font-style:normal;font-variant:normal;font-weight:normal;font-stretch:normal;font-size:medium;line-height:normal;font-family:sans-serif;font-variant-ligatures:normal;font-variant-position:normal;font-variant-caps:normal;font-variant-numeric:normal;font-variant-alternates:normal;font-feature-settings:normal;text-indent:0;text-align:start;text-decoration:none;text-decoration-line:none;text-decoration-style:solid;text-decoration-color:#000000;letter-spacing:normal;word-spacing:normal;text-transform:none;writing-mode:lr-tb;direction:ltr;text-orientation:mixed;dominant-baseline:auto;baseline-shift:baseline;text-anchor:start;white-space:normal;shape-padding:0;clip-rule:nonzero;display:inline;overflow:visible;visibility:visible;opacity:1;isolation:auto;mix-blend-mode:normal;color-interpolation:sRGB;color-interpolation-filters:linearRGB;solid-color:#000000;solid-opacity:1;vector-effect:none;fill:#000000;fill-opacity:1;fill-rule:nonzero;stroke:none;stroke-width:1.99999988;stroke-linecap:butt;stroke-linejoin:round;stroke-miterlimit:4;stroke-dasharray:none;stroke-dashoffset:0;stroke-opacity:1;color-rendering:auto;image-rendering:auto;shape-rendering:auto;text-rendering:auto;enable-background:accumulate"
       d="M 6.953125,2 C 6.2732598,2.029537 5.8207612,2.7147024 6.0605469,3.3515625 L 7.3007812,6.6445312 6.4589844,9.7890625 C 6.3236848,10.281663 6.5813802,10.797051 7.0566406,10.984375 l 7.5820314,2.945313 c 0.938282,0.361463 1.763377,-0.732167 1.158203,-1.535157 L 13.058594,8.7910156 14.070312,6.421875 c 0.210123,-0.4875878 0.0026,-1.0543533 -0.472656,-1.2910156 L 7.4414062,2.1035156 C 7.2900135,2.0282819 7.1220207,1.9926768 6.953125,2 Z M 43,2 C 38.877061,2.0026646 35.60937,4.1376803 33.738281,7.0917969 33.168449,7.0301906 32.584965,6.9980469 32,6.9980469 c -8.885764,0 -16.003906,7.1572041 -16.003906,16.0039061 v 3.003906 C 15.378225,26.837922 15,27.885959 15,29.003906 c 0,2.769146 2.248456,4.998085 4.998047,4.998047 0.245064,0 0.48182,-0.02269 0.724609,-0.05859 0.684556,1.792744 1.824185,3.354942 3.275391,4.550782 v 1.507812 c -0.150992,8.69e-4 -0.303044,0.03397 -0.443359,0.103516 l -4.001954,2 c -0.270122,0.136441 -0.464036,0.387694 -0.527343,0.683593 l -8.367188,3.738282 c -2.6379361,1.19263 -5.3334287,2.838859 -6.0390624,6.298828 L 4.1542969,55.228516 C 3.7476348,57.243949 4.1633702,59.014352 5.21875,60.214844 6.2772142,61.418703 7.8813021,62 9.6035156,62 c 15.3817444,0 30.4206124,-3.8e-5 44.7929684,0 1.722214,0 3.326302,-0.581297 4.384766,-1.785156 1.055475,-1.200492 1.471115,-2.970895 1.064453,-4.986328 l -0.464844,-2.402344 c -0.705637,-3.459969 -3.401122,-5.106198 -6.039062,-6.298828 l -8.367188,-3.738282 c -0.06331,-0.295937 -0.257198,-0.547228 -0.527343,-0.683593 l -4.001954,-2 c -0.140296,-0.0703 -0.292386,-0.106666 -0.443359,-0.107422 v -1.501953 c 0.606822,-0.50154 1.162076,-1.073089 1.650391,-1.695313 0.313701,0.128504 0.656921,0.197266 1.015625,0.197266 h 0.666015 C 44.797312,36.998047 46,35.82381 46,34.326172 v -1.410156 c 1.167058,-0.297449 2.003906,-1.355967 2.003906,-2.591797 V 29 c 1.327933,-0.0038 1.327933,-1.995691 0,-2 v -2 c 1.098229,-0.05443 1.283512,-1.337955 0.574219,-1.816406 0.643287,-0.909127 1.512134,-1.729955 2.150391,-2.410156 C 52.287166,19.106325 54,16.882158 54,12.955078 54,7.4611943 49.576847,2.0044787 43,2 Z m 0,2.0019531 c 5.432443,0.00378 9.005859,4.5365202 9.005859,8.9531249 0,3.127672 -1.294135,4.906555 -2.738281,6.451172 -0.722071,0.772347 -1.487269,1.489385 -2.125,2.326172 C 46.837343,22.132938 46.584829,22.553146 46.388672,23 h -2.392578 v -3.646484 l 2.703125,-2.640625 c 0.620179,-0.587565 0.264758,-1.631003 -0.634766,-1.722657 -0.320201,-0.0038 -0.578507,0.103364 -0.767578,0.296875 L 43,17.53125 40.703125,15.287109 c -0.189052,-0.193511 -0.449333,-0.300654 -0.769531,-0.296875 -0.899501,0.09184 -1.252995,1.135092 -0.632813,1.722657 l 2.703125,2.640625 V 23 h -2.380859 c -0.196158,-0.446854 -0.46039,-0.867062 -0.765625,-1.267578 -0.637731,-0.836787 -1.402925,-1.553825 -2.125,-2.326172 -1.444147,-1.544617 -2.738281,-3.3235 -2.738281,-6.451172 0,-4.4166047 3.573411,-8.9487028 9.005859,-8.9531249 z m 0,2 c -2.499254,0 -4.810917,1.3336249 -6.060547,3.4980469 -0.622171,1.14463 1.059215,2.110298 1.734375,0.996094 C 39.567796,8.9476969 41.212068,8.0019531 43,8.0019531 c 1.363242,0.030236 1.363242,-2.0302362 0,-2 z M 37.001953,12 c -0.552287,0 -1,0.447698 -1,1 0,0.552265 0.447713,1 1,1 0.552283,0 1,-0.447735 1,-1 0,-0.552302 -0.447717,-1 -1,-1 z m -2.154297,8.322266 c 0.141816,0.160289 0.283198,0.300858 0.423828,0.451172 0.779328,0.833536 1.511682,1.529177 2,2.169921 0.06164,0.08088 0.108327,0.156517 0.16211,0.234375 C 36.72067,23.655428 36.898758,25 38,25 v 2 c -1.33561,0 -1.335588,2 0,2 l 0.002,1.324219 c 0,1.257336 0.855813,2.298002 1.998047,2.59375 v 1.408203 c 0,0.376063 0.07994,0.742701 0.216797,1.064453 -1.635659,2.192617 -4.247806,3.607422 -7.220703,3.607422 h -2 C 26.039636,38.998047 21.98711,35.0016 21.994141,30 l 0.01563,-6.017578 c 4.840362,-0.148536 9.353683,-1.43632 12.83789,-3.660156 z M 4.7832031,22.832031 C 4.3815592,22.855275 4.0329448,23.116928 3.8984375,23.496094 2.642489,26.855905 1.9999962,30.415106 2,34.001953 c 0,3.584051 0.6444317,7.138588 1.8984375,10.496094 0.462531,1.260752 2.3532221,0.553711 1.875,-0.701172 C 4.6030316,40.663193 4.0019531,37.3471 4.0019531,34.001953 c 0,-3.347754 0.5992643,-6.668851 1.7714844,-9.804687 C 6.0417273,23.517022 5.5131316,22.78825 4.7832031,22.832031 Z m 54.3808589,0 c -0.737684,0.03145 -1.188562,0.727181 -0.9375,1.365235 1.172225,3.135836 1.771485,6.456933 1.771485,9.804687 0,3.345147 -0.601074,6.66124 -1.771485,9.794922 -0.477668,1.254637 1.412216,1.961372 1.875,0.701172 C 61.355568,41.140541 62,37.586004 62,34.001953 62,30.415106 61.357507,26.855905 60.101562,23.496094 59.967049,23.116929 59.618441,22.855276 59.164062,22.832031 Z M 19.998047,26 l -0.0039,4 c 0,0.676838 0.07383,1.334724 0.189453,1.976562 C 20.121114,31.980382 20.06056,32 19.998047,32 18.329341,32 16.999997,30.653103 17,29.003906 17,27.354747 18.325497,25.998639 19.998047,26 Z M 8.7617188,26.802734 c -0.4390194,0.02532 -0.8099785,0.334466 -0.9140626,0.761719 -0.5600163,2.100737 -0.8496093,4.26344 -0.8496093,6.4375 0,2.170507 0.2836135,4.330252 0.8417969,6.427735 0.3174727,1.333765 2.3224092,0.799113 1.9335937,-0.515626 -0.5135286,-1.929671 -0.7753906,-3.915233 -0.7753906,-5.912109 0,-2.000164 0.2601801,-3.995035 0.7753906,-5.927734 0.1865008,-0.658324 -0.3283269,-1.305342 -1.0117187,-1.271485 z m 46.4296872,0 c -0.691476,0.02982 -1.140365,0.651539 -0.964844,1.271485 0.515214,1.932699 0.775391,3.92757 0.775391,5.927734 0,1.996876 -0.261881,3.982438 -0.775391,5.912109 -0.388826,1.314747 1.616125,1.849402 1.933594,0.515626 0.55818,-2.097483 0.841797,-4.257228 0.841797,-6.427735 0,-2.17406 -0.289589,-4.336763 -0.849609,-6.4375 -0.104088,-0.427254 -0.47407,-0.736383 -0.960938,-0.761719 z M 13.03125,31.095703 c -0.524323,0.06056 -0.891492,0.439802 -0.931641,0.912109 -0.06607,0.660889 -0.0957,1.330003 -0.0957,1.994141 8e-6,0.668977 0.02873,1.334425 0.0957,2 0.168061,1.284344 2.081732,1.092975 1.992188,-0.199219 -0.06028,-0.599017 -0.08789,-1.198702 -0.08789,-1.800781 4e-6,-0.597732 0.02837,-1.200138 0.08789,-1.794922 0.06959,-0.599757 -0.403118,-1.123902 -1.060547,-1.111328 z m 37.9375,0 c -0.657411,-0.01255 -1.130113,0.511586 -1.060547,1.111328 0.05956,0.594784 0.08785,1.19719 0.08789,1.794922 -3.8e-5,0.602079 -0.02757,1.201764 -0.08789,1.800781 -0.08954,1.292194 1.824127,1.483563 1.992188,0.199219 0.06697,-0.665575 0.0957,-1.331023 0.0957,-2 0,-0.664138 -0.02949,-1.33329 -0.0957,-1.994141 -0.04015,-0.472307 -0.407318,-0.851571 -0.931641,-0.912109 z m -12.966797,8.710938 v 1.564453 L 33.683594,45 h -3.367188 l -4.318359,-3.628906 v -1.5625 c 1.499857,0.763729 3.196516,1.189453 4.998047,1.189453 h 2 c 1.805551,0 3.5039,-0.425901 5.005859,-1.191406 z m -14.144531,2.380859 4.701172,3.949219 -2.539063,3.226562 -4.501953,-6.009765 z m 16.285156,0 2.339844,1.166016 -4.501953,6.009765 -2.539063,-3.226562 z m -20.21289,2.382812 5.271484,7.029297 c 0.393233,0.526451 1.178587,0.537794 1.585937,0.02344 l 1.06836,-1.353516 1.05664,1.060547 -1.734375,8.671875 H 9.6035156 c -1.2777675,0 -2.2710826,-0.416108 -2.8789062,-1.107422 C 6.1168425,58.203218 5.8081687,57.146573 6.1191406,55.617188 l 0.4648438,-2.392579 c 0.5284308,-2.585952 2.6101084,-3.8383 4.8945316,-4.871093 z m 24.140624,0 8.451172,3.78125 c 2.284422,1.032796 4.366101,2.285142 4.894532,4.871094 l 0.464843,2.392578 c 0.31098,1.529386 0.0023,2.586031 -0.605468,3.277344 C 56.667571,59.583895 55.674252,60 54.396484,60 h -2.398437 v -2.996094 c 0.0032,-0.55302 -0.443062,-1.003629 -0.996094,-1.005859 H 40.998047 c -0.553032,0.0022 -0.999284,0.452839 -0.996094,1.005859 V 60 h -3.179687 l -1.734375,-8.671875 1.05664,-1.060547 1.06836,1.353516 c 0.407345,0.515527 1.192704,0.506062 1.585937,-0.02148 z M 30.433594,47 h 3.132812 L 34.896484,48.6875 32,51.583984 29.103516,48.6875 Z m 0.179687,6.03125 0.677735,0.679688 c 0.195477,0.196535 0.452244,0.294921 0.708984,0.294921 0.256743,0 0.5135,-0.09839 0.708984,-0.294921 L 33.386719,53.03125 34.78125,60 h -5.5625 z"
       transform="scale(0.26458334)"
       id="path864"
       inkscape:connector-curvature="0"
       sodipodi:nodetypes="ccccccccccccccccccccccccccccccccccccccccccccccccccccccccccccccccccccccccccccccccccccccccccccccccccccccccccccccccccccccccccccccccccccccccccccccccccccccccccccccccccccccccccccccccccccccccccccccccccccccccccccccccccccccccc" />
  </g>
</svg>
