<?xml version="1.0" encoding="UTF-8" standalone="no"?>
<svg
   xmlns:dc="http://purl.org/dc/elements/1.1/"
   xmlns:cc="http://creativecommons.org/ns#"
   xmlns:rdf="http://www.w3.org/1999/02/22-rdf-syntax-ns#"
   xmlns:svg="http://www.w3.org/2000/svg"
   xmlns="http://www.w3.org/2000/svg"
   xmlns:sodipodi="http://sodipodi.sourceforge.net/DTD/sodipodi-0.dtd"
   xmlns:inkscape="http://www.inkscape.org/namespaces/inkscape"
   width="64"
   height="64"
   viewBox="0 0 16.933333 16.933334"
   version="1.1"
   id="svg8"
   inkscape:version="0.92.3 (2405546, 2018-03-11)"
   sodipodi:docname="20-Coordinator.svg"
   inkscape:export-filename="/home/wanzabuyumna/@WANZ_DESIGN/NICON STUDIO MAGANG/Style Line/Style Line/Icon 8/Icon 8.png"
   inkscape:export-xdpi="96"
   inkscape:export-ydpi="96">
  <defs
     id="defs2" />
  <sodipodi:namedview
     id="base"
     pagecolor="#ffffff"
     bordercolor="#959595"
     borderopacity="1"
     inkscape:pageopacity="0"
     inkscape:pageshadow="2"
     inkscape:zoom="11.2"
     inkscape:cx="32.623741"
     inkscape:cy="34.785447"
     inkscape:document-units="px"
     inkscape:current-layer="layer1"
     inkscape:document-rotation="0"
     showgrid="false"
     units="px"
     inkscape:window-width="1920"
     inkscape:window-height="1040"
     inkscape:window-x="0"
     inkscape:window-y="0"
     inkscape:window-maximized="1"
     inkscape:pagecheckerboard="0" />
  <metadata
     id="metadata5">
    <rdf:RDF>
      <cc:Work
         rdf:about="">
        <dc:format>image/svg+xml</dc:format>
        <dc:type
           rdf:resource="http://purl.org/dc/dcmitype/StillImage" />
      </cc:Work>
    </rdf:RDF>
  </metadata>
  <g
     inkscape:label="20-Coordinator"
     inkscape:groupmode="layer"
     id="layer1">
    <path
       style="color:#000000;font-style:normal;font-variant:normal;font-weight:normal;font-stretch:normal;font-size:medium;line-height:normal;font-family:sans-serif;font-variant-ligatures:normal;font-variant-position:normal;font-variant-caps:normal;font-variant-numeric:normal;font-variant-alternates:normal;font-feature-settings:normal;text-indent:0;text-align:start;text-decoration:none;text-decoration-line:none;text-decoration-style:solid;text-decoration-color:#000000;letter-spacing:normal;word-spacing:normal;text-transform:none;writing-mode:lr-tb;direction:ltr;text-orientation:mixed;dominant-baseline:auto;baseline-shift:baseline;text-anchor:start;white-space:normal;shape-padding:0;clip-rule:nonzero;display:inline;overflow:visible;visibility:visible;opacity:1;isolation:auto;mix-blend-mode:normal;color-interpolation:sRGB;color-interpolation-filters:linearRGB;solid-color:#000000;solid-opacity:1;vector-effect:none;fill:#000000;fill-opacity:1;fill-rule:nonzero;stroke:none;stroke-width:1.99999988;stroke-linecap:round;stroke-linejoin:miter;stroke-miterlimit:4;stroke-dasharray:none;stroke-dashoffset:0;stroke-opacity:1;color-rendering:auto;image-rendering:auto;shape-rendering:auto;text-rendering:auto;enable-background:accumulate"
       d="M 21,2 C 14.888258,1.9991496 9.9960936,6.9232751 9.9960938,13 v 1.533203 c -1.190816,0.691464 -2.0000002,1.984844 -2,3.466797 0,2.216844 1.8047621,4.001953 4.0019532,4.001953 h 0.914062 c 0.700233,1.413808 1.74287,2.603118 3.087891,3.5 v 1.494141 c -0.0378,0.0014 -0.08009,0.0022 -0.115234,0.0098 -0.104315,0.01134 -0.20453,0.04291 -0.304688,0.08789 l -4.066406,1.904297 -1.5175782,0.710937 C 8.8360432,30.26518 7.7041762,30.772183 6.7324219,31.535156 5.5589164,32.457473 4.964146,33.476855 4.7382812,34.835938 L 2.0527344,47.388672 c -0.2596536,1.643187 0.4539357,3.058299 1.5429687,4.041016 1.0889952,0.982752 2.5734551,1.572265 4.1328125,1.572265 H 19.587891 l 0.707031,0.707031 c 0.390085,0.38778 1.02007,0.38778 1.410156,0 L 22.414062,53 H 27 v 6.003906 C 27,60.668146 28.351395,62 29.996094,62 h 10.005859 c 0.776236,0 1.47237,-0.284995 2.001953,-0.763672 C 42.53036,61.71595 43.222844,62 43.996094,62 H 53.998047 C 55.662248,62 57,60.648605 57,59.003906 v -1.130859 c 0.275906,0.07408 0.629955,0.130481 0.998047,0.130859 2.197266,0 4.001953,-1.78904 4.001953,-4.001953 0,-2.212913 -1.804687,-4 -4.001953,-4 C 57.630677,50.002709 57.34817,50.032214 57,50.130859 V 48.998047 C 57,47.353348 55.671948,46 53.994141,46 h -2.763672 c -0.866041,-0.0013 -1.324706,1.023597 -0.746094,1.667969 0.329575,0.366236 0.516558,0.845153 0.517578,1.33789 -0.0033,1.113487 -0.908687,1.992188 -2.001953,1.992188 -1.093262,0 -2,-0.883565 -2,-2 0.0024,-0.490016 0.182194,-0.965316 0.509766,-1.330078 C 48.088373,47.023597 47.629558,45.998715 46.763672,46 H 43.996094 C 43.227678,46 42.529134,46.281971 42,46.763672 41.467011,46.282538 40.771654,46 40.001953,46 h -1.132812 c 0.04724,-0.167811 0.07372,-0.319762 0.09375,-0.474609 0.65159,-0.349985 1.362188,-0.955901 1.912109,-1.50586 l 7.833984,-7.484375 c 0.537525,-0.559219 0.825273,-1.257832 0.867188,-1.960937 2.484283,-0.395906 4.514957,-2.094298 5.183594,-4.589844 L 55.792969,26.125 c 0.450482,-1.681247 -0.07256,-2.95355 -0.923828,-3.802734 -0.185953,-0.185575 -0.37152,-0.337121 -0.556641,-0.466797 0.121701,-0.714444 -0.09186,-1.480613 -0.654297,-2.042969 l -0.669922,-0.671875 6.302735,-3.152344 c 0.609755,-0.306141 0.740726,-1.119521 0.257812,-1.601562 L 49.650391,4.4882812 C 49.460658,4.2974151 49.202432,4.1910917 48.933594,4.1933594 c -0.375307,0.00363 -0.716917,0.2169609 -0.884766,0.5527344 l -5.583984,11.1757812 -2.710938,2.712891 c -0.387779,0.390085 -0.387779,1.020108 0,1.410156 l 3.253906,3.251953 c -0.0021,0.389556 -0.01526,0.916982 -0.07422,1.558594 -0.096,1.020624 -0.310296,1.957064 -0.580078,2.332031 -0.73595,0.0076 -1.472642,0.280806 -2.060547,0.798828 l -4.81836,3.757813 C 34.431834,31.019114 33.080394,30.223518 32.015625,29.710938 L 26.421875,27.09375 C 26.289592,27.03214 26.145965,27 26,27 l 0.002,-1.5 c 1.320983,-0.857386 2.379958,-2.082085 3.080078,-3.498047 h 0.91211 c 2.196926,0 4.001953,-1.785109 4.001953,-4.001953 0,-1.478589 -0.811691,-2.772246 -1.998047,-3.464844 V 13 C 31.997861,6.9232755 27.111741,2.0008882 21,2 Z m 33.113281,0.00781 c -0.2832,-0.034053 -0.585693,0.049441 -0.824219,0.2890625 -0.189354,0.1931339 -0.291959,0.4541842 -0.285156,0.7246094 l -0.0078,1.4140625 C 52.965858,5.8006366 55.028573,5.802623 55,4.4375 l -0.0039,-1.4160156 C 55.007432,2.458368 54.58559,2.0666597 54.113281,2.0078125 Z m 4.070313,2.8769531 c -0.250583,-0.015042 -0.516224,0.073129 -0.751953,0.3085938 l -0.707032,0.7070312 c -0.94295,0.9429921 0.471109,2.3570546 1.414063,1.4140625 L 58.845703,6.6074219 C 59.552925,5.9001967 58.934888,4.9287782 58.183594,4.8847656 Z M 60.974609,8.9980469 59.566406,9 c -0.259275,-0.00378 -0.510167,0.092271 -0.699218,0.2695312 -0.661682,0.6237733 -0.213929,1.7343478 0.695312,1.7265628 l 1.419922,0.002 c 1.360365,0.02268 1.354216,-2.0311434 -0.0078,-2.0000001 z M 17.527344,13.322266 c 1.061291,0.402218 2.116259,0.679687 3.472656,0.679687 1.094211,0 2.343156,-0.215044 3.464844,-0.677734 0.735383,1.325102 2.033423,2.252479 3.53125,2.572265 V 18.0625 C 27.996094,21.917732 24.861089,25 21,25 17.100283,25 13.996094,21.870828 13.996094,18.0625 v -2.166016 c 1.477342,-0.300094 2.846324,-1.285625 3.53125,-2.574218 z M 12,15.998047 l 0.0039,2.064453 c 0,0.666671 0.06561,1.312026 0.205078,1.9375 h -0.210937 c -1.116359,0 -2.0000001,-0.908989 -2.0000001,-2.001953 0,-1.092964 0.8856011,-2 2.0019531,-2 z m 17.996094,0 c 1.115452,0.0011 2,0.907679 2,2 0,1.092964 -0.885594,2 -2.001953,2 h -0.210938 c 0.138331,-0.624189 0.212891,-1.269859 0.212891,-1.935547 z m 13.296875,1.925781 2.824219,2.824219 -1.414063,1.416015 -2.824219,-2.824218 z m 7.8125,2.158203 1.142578,1.140625 c 0.117921,0.117922 0.142866,0.329942 0,0.472656 l -3.0625,3.064454 c -0.12926,0.129259 -0.329941,0.142866 -0.472656,0 l -1.890625,-1.886719 1.296875,-1.296875 z m 2.121093,3.462891 c 0.07748,0.05858 0.156076,0.118966 0.232422,0.195312 0.377575,0.376819 0.656534,0.933154 0.40625,1.867188 l -1.041015,3.861328 c -0.483477,1.804422 -2.011281,2.976687 -3.826172,3.167969 -0.08579,-0.114898 -0.186323,-0.242961 -0.291016,-0.347657 l -4.24414,-4.24414 c -0.06161,-0.06161 -0.120539,-0.117072 -0.185547,-0.171875 0.384,-0.799521 0.563096,-1.925157 0.648437,-2.833985 0.0189,-0.187842 0.02577,-0.314852 0.03711,-0.492187 0.171968,-0.0446 0.316367,-0.133529 0.443359,-0.259766 l 1.888672,1.888672 c 0.901795,0.901833 2.381373,0.919408 3.300781,0 z M 18,26.492188 c 0.941027,0.331842 1.945096,0.511718 3,0.511718 1.054677,0 2.060561,-0.17951 3,-0.509765 v 2.091797 c -0.802318,0.804549 -1.610535,1.607788 -2.414062,2.412109 H 20.412109 L 18,28.576172 Z m 24.361328,2.693359 c 0.261241,-0.0074 0.504513,0.09026 0.691406,0.277344 l 4.251954,4.251953 c 0.354897,0.354897 0.397628,0.978436 -0.0332,1.425781 l -7.80664,7.453125 c -0.308788,0.308409 -0.558141,0.55005 -0.830078,0.746094 -0.630426,-1.378129 -2.018363,-2.341797 -3.636719,-2.341797 -2.212913,0 -4.001953,1.804649 -4.001953,4.001953 4.92e-4,0.368126 0.05716,0.724019 0.130859,1 H 29.996094 C 28.351433,46 27,47.337714 27,49.001953 V 51 h -2.583984 l 0.285156,-0.285156 c 0.226394,-0.22337 0.332842,-0.540861 0.287109,-0.855469 l -1.927734,-13.494141 0.947265,-0.9375 0.279297,0.279297 c 0.423458,0.42327 1.121341,0.381943 1.492188,-0.08789 l 3.853515,-4.814453 1.519532,0.710937 c 1.088088,0.524183 3.009671,1.690542 3.71289,2.257813 0.359811,0.291779 0.873129,0.297136 1.240235,0.01367 l 5.46289,-4.263671 c 0.253985,-0.222994 0.53163,-0.331617 0.792969,-0.337891 z m -26.570312,0.01953 2.794922,2.792969 L 17.083984,33.5 14.226562,29.9375 Z m 10.423828,0 1.554687,0.726563 L 24.916016,33.5 23.414062,31.998047 Z m -13.847656,1.601563 3.851562,4.8125 c 0.370394,0.464315 1.061672,0.505452 1.484375,0.08789 l 0.302734,-0.302734 0.878907,0.882812 -1.875,13.560547 c -0.04762,0.313323 0.05593,0.630663 0.279296,0.855469 l 0.298829,0.298828 h -5.28711 l 0.738281,-2.757812 c 0.370019,-1.303378 -1.603036,-1.831493 -1.933593,-0.517579 l -0.876953,3.275391 H 7.7285156 c -1.0381606,0 -2.0878089,-0.429656 -2.7890625,-1.0625 -0.6992882,-0.63103 -1.0443306,-1.38604 -0.9160156,-2.212891 L 6.7070312,35.179688 C 6.8487638,34.28507 7.2530931,33.67923 7.9511719,33.125 8.728016,32.518046 9.6858185,32.079215 10.849609,31.517578 Z m 8.044921,2.191406 h 1.173829 l 1.011718,1.013672 -1.59375,1.5625 -1.583984,-1.583985 z m 0.265625,4.935547 c 0.186709,0.05594 0.401221,0.06766 0.587891,0.01172 L 22.9375,49.648438 20.996094,51.582031 19.056641,49.648438 Z M 9.9980469,39 C 8.6644028,39 8.6663533,41 10,41 h 4.001953 c 1.333643,0 1.329713,-2 0,-2 z m 33.9980471,9.001953 h 1.136718 C 45.034545,48.350804 45.000378,48.629959 45,48.998047 c 0,2.197304 1.769625,4 4,4 2.230416,0 4.001953,-1.802696 4.001953,-4 0,-0.308032 -0.03769,-0.64713 -0.136719,-0.996094 h 1.128907 c 0.571279,0 1.003906,0.452409 1.003906,0.996094 v 2.775391 c 0.0038,0.862525 1.028162,1.314621 1.669922,0.738281 0.366236,-0.329575 0.837379,-0.508745 1.330078,-0.509766 1.116397,0 2.001953,0.910929 2.001953,2 0,1.089071 -0.885556,2.001953 -2.001953,2.001953 -0.492548,-6.8e-4 -0.963574,-0.18857 -1.330078,-0.517578 -0.64433,-0.578608 -1.671173,-0.119834 -1.669922,0.746094 v 2.771484 c 0,0.571276 -0.471694,0.996094 -1,0.996094 H 43.996094 C 43.424777,60 43,59.536139 43,59.003906 v -2.769531 c 0,-0.431773 -0.327701,-0.998047 -1,-0.998047 -0.232063,-0.0018 -0.467465,0.07362 -0.667969,0.253906 -0.364724,0.327307 -0.8401,0.505394 -1.330078,0.507813 -1.116397,0 -2,-0.906696 -2,-2 0,-1.093304 0.878697,-1.99675 1.992188,-2 0.492699,0.001 0.971537,0.188192 1.33789,0.517578 0.200315,0.179906 0.455594,0.257371 0.667969,0.255859 0.683981,-0.0189 1.007827,-0.574261 1,-1.001953 V 49 c 0,-0.574224 0.457968,-0.99799 0.996094,-0.998047 z"
       transform="scale(0.26458334)"
       id="path858"
       inkscape:connector-curvature="0"
       sodipodi:nodetypes="cccccccccccccccccccccccccccccccccccccccccccccccccccccccccccccccccccccccccccccccccccccccccccccccccccccccccccccccccccccccccccccccccccccccccccccccccccccccccccccccccccccccccccccccccccccccccccccccccccccccccccccccccccccccccccccccccccccccccccccccccccccccccccccccc" />
  </g>
</svg>
