<?xml version="1.0" encoding="UTF-8"?>
<!DOCTYPE svg PUBLIC "-//W3C//DTD SVG 1.1//EN" "http://www.w3.org/Graphics/SVG/1.1/DTD/svg11.dtd">
<!-- Creator: CorelDRAW -->
<svg xmlns="http://www.w3.org/2000/svg" xml:space="preserve" width="6.82666in" height="6.82666in" style="shape-rendering:geometricPrecision; text-rendering:geometricPrecision; image-rendering:optimizeQuality; fill-rule:evenodd; clip-rule:evenodd"
viewBox="0 0 6.82666 6.82666"
 xmlns:xlink="http://www.w3.org/1999/xlink">
 <defs>
  <style type="text/css">
   <![CDATA[
    .fil1 {fill:none}
    .fil0 {fill:black;fill-rule:nonzero}
   ]]>
  </style>
 </defs>
 <g id="Layer_x0020_1">
  <metadata id="CorelCorpID_0Corel-Layer"/>
  <g id="_297721448">
   <path id="_297721808" class="fil0" d="M5.92 5.46143c0.0294528,0 0.0533346,-0.0238819 0.0533346,-0.0533346 0,-0.0294528 -0.0238819,-0.0533346 -0.0533346,-0.0533346l-5.01333 0c-0.0294528,0 -0.0533346,0.0238819 -0.0533346,0.0533346 0,0.0294528 0.0238819,0.0533346 0.0533346,0.0533346l5.01333 0z"/>
   <path id="_297721472" class="fil0" d="M5.41714 3.01567l-0.393575 -0.227307c-0.0138543,-0.008 -0.0298071,-0.00907874 -0.0438504,-0.00429921l-0.379004 0.0957283c-0.338587,-0.19548 -0.677169,-0.390965 -1.01576,-0.586441 -0.00452362,-0.00261417 -0.00123622,-0.00554724 0.0016811,-0.0108504 0.00572441,-0.0104094 0.0159213,-0.0232559 0.0299055,-0.0381339 0.184469,-0.196181 0.862055,-0.532791 1.1574,-0.674232 0.0438819,-0.0210118 0.0943307,-0.0476063 0.139264,-0.0654213 0.0498386,-0.0229961 0.0360157,-0.0971496 -0.0180157,-0.101591 -0.777764,-0.110268 -1.8305,0.443551 -2.00697,0.540268 -0.640209,-0.340756 -1.07291,-0.523039 -1.28844,-0.567449 -0.109969,-0.0226575 -0.179063,-0.00912205 -0.20613,0.0381299 -0.0268268,0.0468346 -0.00414961,0.113654 0.0691102,0.198047 0.145524,0.167642 0.518535,0.457673 1.12695,0.847945 0.00427165,0.193146 0.0477087,1.30719 0.485902,1.9411 0.0166299,0.0240551 0.0338976,0.0469961 0.0516693,0.0701535 0.0182165,0.0231417 0.051752,0.0271299 0.0748937,0.00891339 0.0155669,-0.0122598 0.0224685,-0.0314488 0.0197677,-0.0497441 -0.00590551,-0.0648071 -0.106217,-1.18568 -0.00520472,-1.497 0.00448819,-0.0138189 0.0123425,-0.0347638 0.0218031,-0.046126l1.01835 0.587929 0.10761 0.380283c0.00420079,0.0148189 0.0142717,0.0263858 0.0269764,0.0329094l0.333866 0.192764 0.059748 0.0345709c0.0255039,0.0147244 0.058126,0.00598425 0.0728504,-0.0195236 0.00585433,-0.0101378 0.00799606,-0.0213937 0.00685433,-0.0322087 -0.0151417,-0.190311 0.0360276,-0.38722 0.134256,-0.557354 0.0815,-0.141161 0.195091,-0.263457 0.329752,-0.347843 0.0267323,-0.016752 0.0580984,-0.0348031 0.0868937,-0.0475472 0.0403386,-0.019122 0.0361772,-0.0699488 0.00144488,-0.0956654zm-0.428283 -0.12426l0.294886 0.170248c-0.154827,0.094126 -0.284831,0.232256 -0.376984,0.391874 -0.0921732,0.15965 -0.146815,0.34126 -0.150937,0.522295l-0.294783 -0.170193 -0.106634 -0.376224c-0.00291339,-0.0145 -0.0118031,-0.0277244 -0.025622,-0.0357008l-1.03593 -0.598016c-0.00796063,-0.00459449 -0.0161417,-0.00823622 -0.0245079,-0.0109528 -0.0836339,-0.0271378 -0.130854,0.0482205 -0.152843,0.116008 -0.0824646,0.254154 -0.0419724,0.98272 -0.0157598,1.33992 -0.385047,-0.65928 -0.403307,-1.73071 -0.404134,-1.80633 0.00133465,-0.0188661 -0.00742913,-0.0378504 -0.0244803,-0.0487559 -0.0491614,-0.0316457 -0.0983543,-0.0631654 -0.147307,-0.0951457 -0.526539,-0.343988 -0.850949,-0.598795 -0.980657,-0.748213 -0.0402402,-0.0463622 -0.0592874,-0.0715787 -0.0571299,-0.0753504 0.00191732,-0.00334646 0.0325354,0.000984252 0.091874,0.0132126 0.209185,0.0430984 0.639457,0.225783 1.28318,0.569563 0.015937,0.00960236 0.0364567,0.0105787 0.0538071,0.000775591 0.0579528,-0.0351969 0.127126,-0.0685866 0.187815,-0.0987677 0.322457,-0.16037 1.00267,-0.459689 1.5826,-0.456681 -0.318854,0.154134 -0.959555,0.47785 -1.14628,0.676433 -0.0593661,0.0631417 -0.105626,0.157441 -0.00882677,0.213339l1.0335 0.596685c0.0120039,0.00776378 0.0270748,0.0107087 0.0420276,0.00693307l0.383126 -0.0969528z"/>
  </g>
 </g>
 <rect class="fil1" width="6.82666" height="6.82666"/>
</svg>
